<svg height="830" width="720" xmlns="http://www.w3.org/2000/svg">
<rect height="830" fill="#555" width="720"></rect>
<text fill="#7f7" font-family="Courier New" font-size="12" xml:space="preserve">
<tspan x="10" y="26"></tspan>

<tspan x="10" y="42">&gt; sqlite3-lite@2020.8.19 postinstall /tmp/app/node_modules/sqlite3-lite</tspan>

<tspan x="10" y="58">&gt; ./npm_scripts.sh</tspan>

<tspan x="10" y="74"></tspan>

<tspan x="10" y="90">running command 'npm run postinstall kaizhu256/node-sqlite3-lite#alpha' ...</tspan>

<tspan x="10" y="106">sqlite3 - fetching https://mapbox-node-binary.s3.amazonaws.com/sqlite3/v5.0.0/napi-v3-darwin-x64\</tspan>
<tspan x="10" y="122">.tar.gz</tspan>

<tspan x="10" y="138">  % Total    % Received % Xferd  Average Speed   Time    Time     Time  Current</tspan>

<tspan x="10" y="154">                                 Dload  Upload   Total   Spent    Left  Speed</tspan>

<tspan x="10" y="170"></tspan>
<tspan x="10" y="186">  0     0    0     0    0     0      0      0 --:--:-- --:--:-- --:--:--     0</tspan>
<tspan x="10" y="202">  0  948k    0     0    0     0      0      0 --:--:-- --:--:-- --:--:--     0</tspan>
<tspan x="10" y="218">100  948k  100  948k    0     0  2339k      0 --:--:-- --:--:-- --:--:-- 2336k</tspan>

<tspan x="10" y="234">sqlite3 - fetching https://mapbox-node-binary.s3.amazonaws.com/sqlite3/v5.0.0/napi-v3-linux-x64.\</tspan>
<tspan x="10" y="250">tar.gz</tspan>

<tspan x="10" y="266">  % Total    % Received % Xferd  Average Speed   Time    Time     Time  Current</tspan>

<tspan x="10" y="282">                                 Dload  Upload   Total   Spent    Left  Speed</tspan>

<tspan x="10" y="298"></tspan>
<tspan x="10" y="314">  0     0    0     0    0     0      0      0 --:--:-- --:--:-- --:--:--     0</tspan>
<tspan x="10" y="330">100  968k  100  968k    0     0  3838k      0 --:--:-- --:--:-- --:--:-- 3845k</tspan>

<tspan x="10" y="346">sqlite3 - fetching https://mapbox-node-binary.s3.amazonaws.com/sqlite3/v5.0.0/napi-v3-win32-x64.\</tspan>
<tspan x="10" y="362">tar.gz</tspan>

<tspan x="10" y="378">  % Total    % Received % Xferd  Average Speed   Time    Time     Time  Current</tspan>

<tspan x="10" y="394">                                 Dload  Upload   Total   Spent    Left  Speed</tspan>

<tspan x="10" y="410"></tspan>
<tspan x="10" y="426">  0     0    0     0    0     0      0      0 --:--:-- --:--:-- --:--:--     0</tspan>
<tspan x="10" y="442">100  732k  100  732k    0     0  2080k      0 --:--:-- --:--:-- --:--:-- 2085k</tspan>

<tspan x="10" y="458">... finished running command 'npm run postinstall kaizhu256/node-sqlite3-lite#alpha'</tspan>

<tspan x="10" y="474">npm WARN saveError ENOENT: no such file or directory, open '/tmp/app/package.json'</tspan>

<tspan x="10" y="490">npm notice created a lockfile as package-lock.json. You should commit this file.</tspan>

<tspan x="10" y="506">npm WARN enoent ENOENT: no such file or directory, open '/tmp/app/package.json'</tspan>

<tspan x="10" y="522">npm WARN app No description</tspan>

<tspan x="10" y="538">npm WARN app No repository field.</tspan>

<tspan x="10" y="554">npm WARN app No README data</tspan>

<tspan x="10" y="570">npm WARN app No license field.</tspan>

<tspan x="10" y="586"></tspan>

<tspan x="10" y="602">+ sqlite3-lite@2020.8.19</tspan>

<tspan x="10" y="618">added 1 package from 1 contributor and audited 1 package in 1.949s</tspan>

<tspan x="10" y="634">found 0 vulnerabilities</tspan>

<tspan x="10" y="650"></tspan>

<tspan x="10" y="666">1: Ipsum 0</tspan>

<tspan x="10" y="682">2: Ipsum 1</tspan>

<tspan x="10" y="698">3: Ipsum 2</tspan>

<tspan x="10" y="714">4: Ipsum 3</tspan>

<tspan x="10" y="730">5: Ipsum 4</tspan>

<tspan x="10" y="746">6: Ipsum 5</tspan>

<tspan x="10" y="762">7: Ipsum 6</tspan>

<tspan x="10" y="778">8: Ipsum 7</tspan>

<tspan x="10" y="794">9: Ipsum 8</tspan>

<tspan x="10" y="810">10: Ipsum 9</tspan>

</text>
</svg>
