<svg height="558" width="720" xmlns="http://www.w3.org/2000/svg">
<rect height="558" fill="#555" width="720"></rect>
<text fill="#7f7" font-family="Courier New" font-size="12" xml:space="preserve">
<tspan x="10" y="26"></tspan>

<tspan x="10" y="42">&gt; sqlite3-lite@2020.8.19 postinstall /tmp/app/node_modules/sqlite3-lite</tspan>

<tspan x="10" y="58">&gt; ./npm_scripts.sh</tspan>

<tspan x="10" y="74"></tspan>

<tspan x="10" y="90">running command 'npm run postinstall kaizhu256/node-sqlite3-lite#alpha' ...</tspan>

<tspan x="10" y="106">  % Total    % Received % Xferd  Average Speed   Time    Time     Time  Current</tspan>

<tspan x="10" y="122">                                 Dload  Upload   Total   Spent    Left  Speed</tspan>

<tspan x="10" y="138"></tspan>
<tspan x="10" y="154">  0     0    0     0    0     0      0      0 --:--:-- --:--:-- --:--:--     0</tspan>
<tspan x="10" y="170">100  968k  100  968k    0     0  2578k      0 --:--:-- --:--:-- --:--:-- 2583k</tspan>

<tspan x="10" y="186">... finished running command 'npm run postinstall kaizhu256/node-sqlite3-lite#alpha'</tspan>

<tspan x="10" y="202">npm WARN saveError ENOENT: no such file or directory, open '/tmp/app/package.json'</tspan>

<tspan x="10" y="218">npm notice created a lockfile as package-lock.json. You should commit this file.</tspan>

<tspan x="10" y="234">npm WARN enoent ENOENT: no such file or directory, open '/tmp/app/package.json'</tspan>

<tspan x="10" y="250">npm WARN app No description</tspan>

<tspan x="10" y="266">npm WARN app No repository field.</tspan>

<tspan x="10" y="282">npm WARN app No README data</tspan>

<tspan x="10" y="298">npm WARN app No license field.</tspan>

<tspan x="10" y="314"></tspan>

<tspan x="10" y="330">+ sqlite3-lite@2020.8.19</tspan>

<tspan x="10" y="346">added 1 package from 1 contributor and audited 1 package in 1.31s</tspan>

<tspan x="10" y="362">found 0 vulnerabilities</tspan>

<tspan x="10" y="378"></tspan>

<tspan x="10" y="394">1: Ipsum 0</tspan>

<tspan x="10" y="410">2: Ipsum 1</tspan>

<tspan x="10" y="426">3: Ipsum 2</tspan>

<tspan x="10" y="442">4: Ipsum 3</tspan>

<tspan x="10" y="458">5: Ipsum 4</tspan>

<tspan x="10" y="474">6: Ipsum 5</tspan>

<tspan x="10" y="490">7: Ipsum 6</tspan>

<tspan x="10" y="506">8: Ipsum 7</tspan>

<tspan x="10" y="522">9: Ipsum 8</tspan>

<tspan x="10" y="538">10: Ipsum 9</tspan>

</text>
</svg>
